<svg xmlns="http://www.w3.org/2000/svg" viewBox="0 0 64 64" role="img" aria-label="ShoeFactory icon">
  <defs>
    <linearGradient id="bg" x1="10" y1="8" x2="54" y2="58" gradientUnits="userSpaceOnUse">
      <stop stop-color="#1d4ed8"/>
      <stop offset="1" stop-color="#0f172a"/>
    </linearGradient>
  </defs>
  <rect width="64" height="64" rx="16" fill="url(#bg)"/>
  <path fill="#dbeafe" d="M15 21h21l6 7h7v9h-7v-4h-5v4h-5v-4h-5v4h-5v-4h-7v-12Zm5 5v3h5v-3h-5Zm9 0v3h5v-3h-5Z"/>
  <path fill="#fff" d="M13.5 39.5c6.2.7 10.9-.5 15.2-3.9 1.7-1.3 4.2-1.3 5.9.1l4.2 3.4c1.9 1.5 4.2 2.3 6.6 2.3h4.4c2.2 0 4.2 1.4 4.9 3.5l.8 2.5H13.8c-3.1 0-5.5-2.4-5.5-5.4v-.8c0-1.2 1-2 2.2-1.8l3 .1Z"/>
  <path fill="#93c5fd" d="M13.1 48.9h42.4c-.6 2.7-3.1 4.6-5.9 4.6H18.2c-2.8 0-5-1.8-5.1-4.6Z"/>
  <path fill="#0f172a" fill-opacity=".18" d="M34.7 35.9 39 39.2c1.9 1.5 4.2 2.3 6.6 2.3h4.2c2.2 0 4.2 1.4 4.9 3.5l.8 2.5H36.8c-1.4-3.5-2.1-7.3-2.1-11.6Z"/>
</svg>
